HIERARCHY
ROOT root
{
	OFFSET 0.000000 0.000000 0.000000
	CHANNELS 6 Xposition Yposition Zposition Zrotation Yrotation Xrotation
	JOINT lhip
	{
		OFFSET 0.058581 -0.082280 -0.017664
		CHANNELS 3 Zrotation Yrotation Xrotation
		JOINT lknee
		{
			OFFSET 0.043451 -0.386469 0.008037
			CHANNELS 3 Zrotation Yrotation Xrotation
			JOINT lankle
			{
				OFFSET -0.014790 -0.426874 -0.037428
				CHANNELS 3 Zrotation Yrotation Xrotation
				JOINT ltoe
				{
					OFFSET 0.041054 -0.060286 0.122042
					CHANNELS 3 Zrotation Yrotation Xrotation
					End Site
					{
						OFFSET 0.000000 0.000000 0.000000
					}
				}
			}
		}
	}
	JOINT rhip
	{
		OFFSET -0.060310 -0.090513 -0.013543
		CHANNELS 3 Zrotation Yrotation Xrotation
		JOINT rknee
		{
			OFFSET -0.043257 -0.383688 -0.004843
			CHANNELS 3 Zrotation Yrotation Xrotation
			JOINT rankle
			{
				OFFSET 0.019056 -0.420046 -0.034562
				CHANNELS 3 Zrotation Yrotation Xrotation
				JOINT rtoe
				{
					OFFSET -0.034840 -0.062106 0.130323
					CHANNELS 3 Zrotation Yrotation Xrotation
					End Site
					{
						OFFSET 0.000000 0.000000 0.000000
					}
				}
			}
		}
	}
	JOINT lowerback
	{
		OFFSET 0.004439 0.124404 -0.038385
		CHANNELS 3 Zrotation Yrotation Xrotation
		JOINT upperback
		{
			OFFSET 0.004488 0.137956 0.026820
			CHANNELS 3 Zrotation Yrotation Xrotation
			JOINT chest
			{
				OFFSET -0.002265 0.056032 0.002855
				CHANNELS 3 Zrotation Yrotation Xrotation
				JOINT lowerneck
				{
					OFFSET -0.013390 0.211636 -0.033468
					CHANNELS 3 Zrotation Yrotation Xrotation
					JOINT upperneck
					{
						OFFSET 0.010113 0.088937 0.050410
						CHANNELS 3 Zrotation Yrotation Xrotation
						End Site
						{
							OFFSET 0.000000 0.000000 0.000000
						}
					}
				}
				JOINT lclavicle
				{
					OFFSET 0.071702 0.114000 -0.018898
					CHANNELS 3 Zrotation Yrotation Xrotation
					JOINT lshoulder
					{
						OFFSET 0.122921 0.045205 -0.019046
						CHANNELS 3 Zrotation Yrotation Xrotation
						JOINT lelbow
						{
							OFFSET 0.255332 -0.015649 -0.022946
							CHANNELS 3 Zrotation Yrotation Xrotation
							JOINT lwrist
							{
								OFFSET 0.265709 0.012698 -0.007375
								CHANNELS 3 Zrotation Yrotation Xrotation
								End Site
								{
									OFFSET 0.000000 0.000000 0.000000
								}
							}
						}
					}
				}
				JOINT rclavicle
				{
					OFFSET -0.082954 0.112472 -0.023707
					CHANNELS 3 Zrotation Yrotation Xrotation
					JOINT rshoulder
					{
						OFFSET -0.113228 0.046853 -0.008472
						CHANNELS 3 Zrotation Yrotation Xrotation
						JOINT relbow
						{
							OFFSET -0.260127 -0.014369 -0.031269
							CHANNELS 3 Zrotation Yrotation Xrotation
							JOINT rwrist
							{
								OFFSET -0.269108 0.006794 -0.006027
								CHANNELS 3 Zrotation Yrotation Xrotation
								End Site
								{
									OFFSET 0.000000 0.000000 0.000000
								}
							}
						}
					}
				}
			}
		}
	}
}
MOTION
Frames: 10
Frame Time: 0.033333
-0.144690 -0.055422 0.997601 80.005099 1.716171 91.875077 4.275585 2.647450 -3.722819 -7.760505 5.191339 35.449984 -1.935701 8.354376 -10.209452 0.000000 -0.000000 0.000000 0.026096 -2.882310 -18.046852 6.243354 -11.988457 10.108726 -2.630301 -7.641721 2.265485 0.000000 -0.000000 0.000000 -1.552180 -1.072116 6.274429 3.896838 -4.466550 -2.121521 -0.077783 -0.386850 -5.270749 -2.172293 21.177143 8.181399 -0.673016 17.408179 24.785415 -13.628597 -2.434856 -7.948887 -69.038821 -45.635270 42.237116 158.906648 -48.236641 -149.696038 15.471177 -16.972535 -30.612117 15.014502 -3.257585 1.351462 62.073564 2.353472 22.768777 -15.253516 19.456694 -8.520204 5.391004 4.561980 -22.625719 
-0.128942 -0.060697 0.998413 79.230757 1.435909 91.661798 5.288507 2.813139 -7.670041 -7.120659 8.118353 42.697827 -1.311536 8.820440 -6.155046 0.000000 -0.000000 0.000000 -0.036894 -2.780520 -16.696208 6.346026 -11.508497 10.214596 -3.077522 -7.381356 0.927972 0.000000 -0.000000 0.000000 -1.285569 -0.245759 7.453935 3.220527 -4.153365 -3.240425 -0.236730 -0.088272 -4.590165 -1.985980 21.277627 8.205317 -0.744665 16.926120 23.943602 -13.806668 -2.979979 -8.233280 -69.343889 -45.086776 42.220937 158.908920 -48.441941 -149.244500 15.337928 -17.475393 -31.228237 13.882610 -2.757311 1.688597 63.180377 2.168443 23.098485 -15.399763 21.064203 -7.261351 6.112499 4.533912 -23.675093 
-0.113348 -0.065313 0.998603 78.495600 1.417541 91.409304 6.335067 3.274629 -11.470162 -4.056413 11.813129 48.372762 0.357480 11.499579 -6.292684 0.000000 -0.000000 0.000000 0.264441 -2.695465 -15.229305 6.234205 -10.916066 10.126186 -3.322895 -7.181124 -0.208062 0.000000 -0.000000 0.000000 -0.829629 0.724828 8.331536 2.792018 -4.146495 -3.550989 -0.469561 0.247288 -4.319320 -1.795756 21.433710 7.838015 -0.902342 16.522429 23.596612 -13.957417 -3.170933 -8.346009 -69.616482 -44.632066 42.145621 159.592419 -48.925885 -149.891858 15.577013 -17.979751 -31.597678 13.345553 -2.272476 1.691349 63.444247 2.214140 22.942645 -15.129621 22.352866 -6.658391 6.056094 4.754434 -23.641193 
-0.093286 -0.070687 0.999479 77.660811 1.125717 91.017693 7.173494 3.471351 -15.556091 -0.425001 15.333536 52.080853 2.349166 14.220970 -6.969281 0.000000 -0.000000 0.000000 0.327317 -3.163499 -13.107628 6.008255 -9.940955 9.722581 -2.945005 -6.788939 -1.249557 0.000000 -0.000000 0.000000 -0.859510 1.800824 9.242621 2.568648 -4.268147 -3.335383 -0.551354 0.486345 -4.505998 -1.762351 21.455559 7.270326 -1.218742 16.321315 23.711838 -14.098137 -2.777900 -8.349814 -69.936503 -43.821521 42.038912 160.979139 -49.474422 -150.771583 14.784948 -18.553221 -30.554728 13.540827 -2.144705 1.801863 62.552486 3.243324 23.155911 -15.041506 23.691635 -6.083073 7.120212 4.724885 -22.489986 
-0.081199 -0.073468 1.000460 77.193353 0.852793 90.869710 7.307889 3.328525 -17.716414 0.142844 16.208119 52.013807 2.764496 14.381909 -7.415013 0.000000 -0.000000 0.000000 0.241824 -3.551490 -11.871867 5.798814 -9.346080 9.354424 -2.590887 -6.528150 -1.769080 0.000000 -0.000000 0.000000 -0.994621 2.354677 9.667315 2.431835 -4.337221 -3.243749 -0.537557 0.631795 -4.653152 -1.927312 21.278999 7.192277 -1.352189 16.280616 23.620193 -14.264777 -2.544351 -8.271178 -69.822572 -43.364854 41.818271 161.946038 -49.683122 -150.961537 14.573170 -18.878998 -29.280485 13.669073 -2.154125 1.947753 62.057091 4.065517 23.094595 -15.129958 24.204006 -5.977936 7.275297 4.783003 -21.813567 
-0.064973 -0.076669 1.001726 76.685438 0.541846 90.736802 7.263821 2.967184 -20.211172 -0.609971 16.337100 49.415804 2.547026 13.572593 -7.967149 0.000000 -0.000000 0.000000 0.118127 -4.059796 -10.306878 5.519725 -8.542207 8.893230 -2.173665 -6.361303 -2.519273 0.000000 -0.000000 0.000000 -1.089306 3.006441 10.067390 2.196436 -4.460649 -3.299781 -0.537145 0.892785 -4.634382 -2.138781 20.937191 7.196060 -1.317704 16.202298 23.599761 -14.461891 -2.480170 -8.194278 -69.323657 -43.055626 41.403866 163.054754 -49.774622 -151.035662 14.203548 -19.059636 -27.844355 13.702213 -1.987524 2.151735 61.660125 4.924477 22.911368 -15.476552 24.652690 -6.081046 6.986201 4.713475 -21.470570 
-0.048340 -0.079015 1.002352 76.220690 0.250498 90.539999 7.057451 2.577736 -21.901171 -1.883978 16.029953 44.301208 2.029430 12.945554 -8.053290 0.000000 -0.000000 0.000000 -0.118372 -4.499755 -8.765981 5.270060 -7.645854 8.639021 -1.701093 -6.455786 -3.409477 0.000000 -0.000000 0.000000 -1.062879 3.627665 10.508865 1.872666 -4.595327 -3.627206 -0.595943 1.251126 -4.366699 -2.267813 20.467299 7.272241 -1.028759 16.080113 23.899248 -14.312059 -2.632986 -8.305872 -69.148077 -43.047785 41.480124 163.365234 -49.741678 -151.249576 14.540051 -18.219909 -28.006352 13.457549 -1.661029 2.242329 61.548866 5.452221 22.957118 -15.704716 24.954600 -6.511518 6.032459 4.529184 -21.979912 
-0.031063 -0.080864 1.002443 75.845047 0.063128 90.293211 6.858021 2.430650 -22.726844 -2.686297 15.887181 37.432917 1.760845 12.783360 -7.656200 0.000000 -0.000000 0.000000 -0.446307 -5.058054 -7.131360 5.178788 -6.796277 8.443652 -1.112445 -6.419903 -4.403445 0.000000 -0.000000 0.000000 -0.948121 4.210227 10.876250 1.609628 -4.748674 -3.877734 -0.673442 1.590082 -4.182845 -2.222355 20.045619 7.320826 -0.697355 15.916428 24.772500 -13.918622 -2.770162 -8.568388 -69.528786 -43.110035 42.096471 162.767542 -49.472563 -151.682832 15.186879 -17.126775 -29.820862 13.209818 -1.389514 2.259895 61.378555 5.881056 23.404743 -15.789708 25.132465 -6.913767 5.326740 4.320809 -22.552957 
-0.013219 -0.082539 1.002028 75.533740 0.116269 89.971927 6.856791 2.971422 -22.847647 -3.181564 16.056188 29.665540 1.534803 12.656023 -7.032317 0.000000 -0.000000 0.000000 -0.644254 -5.798232 -5.288324 5.135857 -5.923723 8.153080 -0.436169 -6.236275 -5.431340 0.000000 -0.000000 0.000000 -0.612474 4.714386 11.293014 1.400514 -4.846787 -4.215319 -0.721784 1.813837 -3.945105 -1.888880 19.918037 7.184099 -0.644583 15.641946 26.127124 -13.405876 -2.723437 -8.979349 -70.318459 -43.160456 42.697269 162.040220 -49.194321 -151.851821 15.120461 -16.428984 -31.588193 12.999033 -1.241417 2.141129 61.172475 6.247809 23.967527 -15.759833 25.290600 -6.907338 5.520246 4.202964 -22.710488 
0.009541 -0.084090 1.000613 75.146405 0.402806 89.721461 6.762729 4.622920 -22.568964 -3.902905 16.589118 19.362375 1.409765 12.196226 -5.827044 0.000000 -0.000000 0.000000 -0.743295 -6.689630 -3.239377 5.004023 -4.929762 8.053714 0.440705 -5.883384 -6.964836 0.000000 -0.000000 0.000000 -0.065239 5.159607 11.619722 1.194740 -4.841308 -4.662627 -0.758326 2.036924 -3.543074 -1.220244 20.125133 6.847084 -0.993186 15.311902 27.542358 -12.608778 -2.426252 -9.786749 -71.607999 -42.945879 43.563635 161.683034 -48.951130 -151.992565 14.549357 -15.465106 -32.658895 12.791745 -1.264276 1.784965 61.086049 6.506302 24.827660 -15.809542 25.586862 -6.803251 5.811509 3.948849 -22.841549 
